<svg width="540" height="539" viewBox="0 0 540 539" fill="none" xmlns="http://www.w3.org/2000/svg">
<path d="M179.119 80.9831C171.464 84.5911 165.054 80.9103 159.889 69.9406L148.998 46.8128C144.282 36.7979 146.31 29.7232 155.081 25.5889C158.696 23.8854 161.812 23.3103 164.429 23.8638C167.037 24.3969 169.362 25.8827 171.404 28.3213C173.445 30.7598 175.408 33.98 177.292 37.9819L166.815 42.9202L164.577 38.1666C164.032 37.0087 163.415 36.1204 162.727 35.5015C162.049 34.8528 161.213 34.763 160.218 35.2319C158.979 35.8157 158.353 36.6197 158.339 37.644C158.345 38.6587 158.583 39.6638 159.052 40.6592L171.291 66.6513C171.97 68.0936 172.708 69.1857 173.504 69.9275C174.31 70.6395 175.262 70.7371 176.358 70.2203C177.495 69.6844 178.036 68.8834 177.981 67.8173C177.936 66.7213 177.565 65.4319 176.866 63.9489L173.265 56.3006L170.402 57.65L166.04 48.3867L179.136 42.2139L193.843 73.447L189.549 75.4712L185.598 71.8227C185.299 76.0347 183.139 79.0882 179.119 80.9831Z" fill="#3639FB"/>
<path d="M199.668 71.2885L183.586 14.2305L201.084 9.29401C204 8.47126 206.393 8.51963 208.261 9.43911C210.123 10.337 211.641 11.9153 212.814 14.1742C214.002 16.4053 215.05 19.1311 215.958 22.3514C216.835 25.4636 217.136 28.0619 216.86 30.1461C216.607 32.2242 215.489 33.9276 213.508 35.2564C215.405 35.118 216.911 35.6614 218.026 36.8867C219.156 38.0844 220.038 39.8071 220.672 42.0548L226.757 63.6461L215.513 66.8182L209.217 44.4813C208.748 42.8171 208.113 41.888 207.312 41.694C206.527 41.4723 205.378 41.5748 203.866 42.0014L211.203 68.0341L199.668 71.2885ZM201.144 32.0952L203.898 31.3181C205.475 30.8733 205.78 28.9326 204.811 25.4961C204.184 23.27 203.6 21.8599 203.059 21.2658C202.518 20.6717 201.773 20.5087 200.822 20.7769L198.165 21.5265L201.144 32.0952Z" fill="#3639FB"/>
<path d="M231.32 62.5959L230.605 3.04121L250.587 0.867632L262.581 59.1953L251.435 60.4077L249.565 50.9887L242.469 51.7605L242.767 61.3507L231.32 62.5959ZM242.284 42.2599L247.639 41.6774L241.805 11.9875L241.269 12.0458L242.284 42.2599Z" fill="#3639FB"/>
<path d="M267.85 59.187L271.223 0L286.852 0.891427C290.124 1.07802 292.671 1.95426 294.492 3.52015C296.336 5.08731 297.596 7.2397 298.272 9.9773C298.948 12.7149 299.18 15.9445 298.968 19.6661C298.764 23.2532 298.238 26.3609 297.391 28.9892C296.546 31.595 295.185 33.5755 293.31 34.9305C291.456 36.2868 288.894 36.8716 285.622 36.685L280.816 36.4109L279.48 59.8503L267.85 59.187ZM281.421 25.7841L282.093 25.8225C284.289 25.9477 285.669 25.4079 286.232 24.2029C286.796 22.998 287.146 21.1961 287.282 18.7972C287.41 16.5553 287.262 14.8149 286.838 13.5762C286.438 12.3163 285.341 11.6352 283.548 11.533L282.237 11.4582L281.421 25.7841Z" fill="#3639FB"/>
<path d="M301.947 61.5831L315.076 3.77369L326.567 6.38592L321.875 27.0462L327.324 28.2852L332.017 7.62487L343.507 10.2371L330.378 68.0465L318.887 65.4343L324.84 39.223L319.39 37.984L313.437 64.1954L301.947 61.5831Z" fill="#3639FB"/>
<path d="M336.028 70.2458L356.245 14.5202L367.005 18.4278L346.788 74.1533L336.028 70.2458Z" fill="#3639FB"/>
<path d="M364.605 82.8035C360.781 80.8642 358.302 78.1088 357.168 74.5374C356.053 70.9761 356.582 67.0523 358.754 62.7661L371.115 38.3708C373.713 33.2433 376.713 29.8304 380.115 28.132C383.537 26.4437 387.541 26.7621 392.125 29.0873C394.628 30.3565 396.616 31.9442 398.091 33.8505C399.586 35.7669 400.428 37.9307 400.615 40.342C400.813 42.7332 400.206 45.3209 398.795 48.1049L394.168 57.2382L383.657 51.9075L387.615 44.0962C388.417 42.5139 388.755 41.3508 388.628 40.6069C388.512 39.843 388.034 39.2479 387.193 38.8214C386.212 38.3239 385.369 38.3494 384.663 38.8978C383.967 39.4262 383.32 40.2812 382.721 41.463L369.31 67.9313C368.569 69.3935 368.257 70.5316 368.373 71.3457C368.509 72.1699 368.977 72.7851 369.778 73.1913C370.679 73.6482 371.497 73.5975 372.233 73.0392C372.989 72.491 373.666 71.6261 374.265 70.4444L379.09 60.9206L389.721 66.3121L384.651 76.3166C382.297 80.9634 379.416 83.7443 376.008 84.6594C372.61 85.5544 368.809 84.9358 364.605 82.8035Z" fill="#3639FB"/>
<path d="M407.27 111.486C403.179 107.946 401.106 104.371 401.051 100.761C401.013 97.1656 402.918 93.143 406.765 88.693L410.553 84.3109L419.414 91.9788L414.569 97.5838C413.674 98.6198 413.122 99.5673 412.913 100.426C412.737 101.283 413.039 102.049 413.82 102.725C414.635 103.43 415.4 103.677 416.117 103.466C416.851 103.269 417.687 102.627 418.627 101.54C419.816 100.165 420.672 98.9005 421.193 97.7483C421.729 96.5791 422.017 95.2846 422.057 93.8648C422.129 92.4427 422.056 90.657 421.836 88.5077L421.116 81.2048C420.564 75.7683 421.865 71.2242 425.022 67.5725C428.326 63.751 431.726 61.602 435.225 61.1255C438.74 60.6637 442.178 61.887 445.539 64.7955C449.647 68.3503 451.612 71.9651 451.432 75.6397C451.27 79.3291 449.258 83.4073 445.397 87.8742L436.28 79.986L438.945 76.9033C439.474 76.2918 439.707 75.662 439.644 75.0139C439.598 74.3804 439.278 73.8066 438.684 73.2924C437.971 72.6755 437.268 72.4239 436.576 72.5378C435.916 72.6493 435.314 73.0193 434.771 73.6478C434.228 74.2762 433.81 75.1025 433.518 76.1266C433.227 77.1507 433.17 78.5717 433.35 80.3895L434.225 89.8305C434.409 91.7116 434.456 93.5788 434.368 95.432C434.294 97.2681 433.889 99.1443 433.152 101.06C432.431 102.959 431.167 104.953 429.361 107.043C425.72 111.255 422.083 113.883 418.451 114.926C414.851 115.967 411.124 114.82 407.27 111.486Z" fill="#3639FB"/>
<path d="M430.59 135.31C427.563 131.666 426.343 127.965 426.928 124.208C427.546 120.454 429.934 116.848 434.095 113.389L455.741 95.3911C459.643 92.1475 463.392 90.636 466.99 90.8565C470.602 91.0944 473.936 93.0526 476.991 96.7313C480.047 100.41 481.354 104.039 480.912 107.618C480.485 111.214 478.32 114.634 474.419 117.877L452.772 135.875C448.612 139.334 444.624 141.015 440.807 140.917C437.023 140.823 433.617 138.954 430.59 135.31ZM439.044 128.412C440.192 129.794 442.104 129.373 444.779 127.148L467.022 108.655C469.266 106.789 469.828 105.183 468.709 103.836C467.447 102.316 465.668 102.511 463.372 104.419L441.155 122.891C439.74 124.068 438.865 125.087 438.53 125.949C438.213 126.797 438.384 127.618 439.044 128.412Z" fill="#3639FB"/>
<path d="M450.484 163.661C447.993 159.395 447.351 155.557 448.557 152.148C449.783 148.726 452.721 145.657 457.372 142.938L494.843 121.036L500.652 130.983L463.588 152.647C462.735 153.145 461.939 153.675 461.202 154.236C460.483 154.787 459.974 155.383 459.674 156.027C459.373 156.67 459.45 157.38 459.903 158.155C460.367 158.95 460.943 159.381 461.631 159.447C462.339 159.501 463.113 159.335 463.953 158.948C464.804 158.581 465.656 158.148 466.509 157.649L503.573 135.985L509.381 145.932L471.91 167.834C467.259 170.552 463.143 171.606 459.562 170.994C456.001 170.371 452.975 167.926 450.484 163.661Z" fill="#3639FB"/>
<path d="M461.011 181.527L516.425 160.529L520.741 171.932L496.131 187.092L522.673 177.035L526.727 187.745L471.314 208.743L467.212 197.907L492.82 181.864L465.114 192.363L461.011 181.527Z" fill="#3639FB"/>
<path d="M473.235 215.384L531.418 204.165L534.502 220.173C535.309 224.363 534.749 227.741 532.82 230.308C530.914 232.871 527.724 234.584 523.25 235.447L496.009 240.7C490.499 241.762 486.059 241.612 482.688 240.25C479.321 238.909 477.172 235.825 476.242 230.996L473.235 215.384ZM485.772 225.11L486.16 227.128C486.572 229.267 487.814 230.136 489.886 229.737L519.903 223.949C521.843 223.575 523.037 223.07 523.486 222.435C523.961 221.817 524.046 220.714 523.74 219.127L523.492 217.837L485.772 225.11Z" fill="#3639FB"/>
<path d="M481.07 268.008L540 274.207L538.113 292.162L501.665 293.341L537.075 302.045L535.17 320.168L476.241 313.969L477.374 303.182L519.83 307.648L478.085 296.415L479.198 285.83L522.407 283.127L479.951 278.661L481.07 268.008Z" fill="#3639FB"/>
<path d="M468.987 334.115C470.454 329.61 472.932 326.603 476.421 325.095C479.924 323.616 484.248 323.714 489.391 325.39L516.152 334.112C520.976 335.684 524.253 338.051 525.985 341.213C527.711 344.397 527.833 348.263 526.352 352.811C524.871 357.359 522.5 360.4 519.239 361.935C515.97 363.491 511.924 363.483 507.101 361.911L480.339 353.19C475.196 351.513 471.648 349.034 469.695 345.753C467.756 342.499 467.52 338.62 468.987 334.115ZM479.328 337.591C478.772 339.299 480.147 340.693 483.455 341.771L510.953 350.733C513.728 351.637 515.386 351.256 515.928 349.591C516.54 347.712 515.427 346.31 512.588 345.385L485.122 336.433C483.372 335.863 482.044 335.666 481.136 335.843C480.25 336.026 479.648 336.609 479.328 337.591Z" fill="#3639FB"/>
<path d="M460.073 358.479L502.835 380.017L505.999 373.729L516.163 378.848L504.507 402.014L494.342 396.895L497.506 390.607L454.745 369.069L460.073 358.479Z" fill="#3639FB"/>
<path d="M449.298 378.619L499.044 410.829L492.824 420.444L443.079 388.234L449.298 378.619Z" fill="#3639FB"/>
<path d="M430.438 403.907C433.483 400.279 436.906 398.418 440.705 398.326C444.507 398.265 448.48 399.975 452.622 403.455L474.177 421.563C478.062 424.826 480.216 428.248 480.64 431.83C481.049 435.428 479.716 439.059 476.642 442.722C473.568 446.385 470.231 448.317 466.633 448.52C463.02 448.739 459.271 447.217 455.386 443.954L433.831 425.846C429.688 422.366 427.325 418.739 426.741 414.965C426.16 411.222 427.393 407.536 430.438 403.907ZM438.727 411.003C437.572 412.378 438.327 414.185 440.991 416.424L463.139 435.029C465.374 436.906 467.054 437.174 468.18 435.833C469.45 434.32 468.942 432.603 466.656 430.682L444.533 412.098C443.124 410.914 441.966 410.234 441.058 410.058C440.168 409.897 439.391 410.212 438.727 411.003Z" fill="#3639FB"/>
<path d="M416.922 420.057L455.17 465.336L445.861 473.207L423.376 455.041L441.696 476.729L432.953 484.121L394.705 438.842L403.551 431.363L427.2 450.176L408.077 427.537L416.922 420.057Z" fill="#3639FB"/>
<path d="M362.981 457.006C370.596 453.315 377.046 456.925 382.331 467.838L393.472 490.846C398.297 500.809 396.347 507.905 387.621 512.135C384.025 513.878 380.916 514.486 378.292 513.962C375.679 513.457 373.338 511.997 371.27 509.58C369.202 507.164 367.204 503.966 365.276 499.985L375.699 494.932L377.989 499.661C378.547 500.813 379.173 501.695 379.868 502.306C380.553 502.947 381.39 503.028 382.38 502.548C383.612 501.951 384.229 501.14 384.232 500.116C384.214 499.101 383.966 498.099 383.486 497.109L370.965 471.252C370.27 469.817 369.52 468.733 368.716 468C367.902 467.296 366.949 467.209 365.859 467.738C364.728 468.286 364.196 469.093 364.263 470.159C364.319 471.254 364.705 472.539 365.419 474.015L369.104 481.623L371.952 480.243L376.414 489.458L363.386 495.773L348.339 464.702L352.611 462.631L356.602 466.236C356.855 462.021 358.982 458.945 362.981 457.006Z" fill="#3639FB"/>
<path d="M342.547 466.922L359.26 523.798L341.818 528.929C338.911 529.784 336.518 529.762 334.64 528.863C332.768 527.986 331.233 526.425 330.035 524.179C328.822 521.961 327.743 519.247 326.8 516.037C325.888 512.935 325.559 510.34 325.811 508.253C326.042 506.172 327.14 504.457 329.106 503.106C327.211 503.265 325.7 502.739 324.571 501.526C323.428 500.341 322.527 498.628 321.868 496.387L315.544 474.865L326.752 471.568L333.295 493.834C333.782 495.493 334.427 496.415 335.23 496.6C336.018 496.813 337.166 496.698 338.673 496.254L331.048 470.305L342.547 466.922ZM341.505 506.13L338.759 506.937C337.187 507.4 336.905 509.344 337.911 512.769C338.563 514.988 339.163 516.392 339.71 516.98C340.257 517.568 341.005 517.722 341.952 517.444L344.601 516.665L341.505 506.13Z" fill="#3639FB"/>
<path d="M310.991 475.966L312.364 535.51L292.408 537.904L279.769 479.713L290.901 478.377L292.875 487.775L299.962 486.925L299.558 477.338L310.991 475.966ZM300.253 496.423L294.904 497.064L301.066 526.688L301.601 526.624L300.253 496.423Z" fill="#3639FB"/>
<path d="M274.477 479.78L271.748 539L256.109 538.279C252.836 538.128 250.28 537.279 248.441 535.733C246.58 534.186 245.297 532.048 244.591 529.318C243.886 526.588 243.619 523.361 243.79 519.637C243.956 516.048 244.447 512.935 245.265 510.297C246.083 507.682 247.421 505.687 249.282 504.312C251.121 502.936 253.677 502.323 256.95 502.474L261.759 502.696L262.84 479.243L274.477 479.78ZM261.27 513.328L260.597 513.297C258.4 513.196 257.026 513.751 256.476 514.962C255.926 516.173 255.595 517.978 255.485 520.379C255.381 522.622 255.549 524.36 255.986 525.595C256.4 526.85 257.504 527.519 259.297 527.602L260.609 527.662L261.27 513.328Z" fill="#3639FB"/>
<path d="M240.363 477.756L227.862 535.704L216.344 533.217L220.811 512.507L215.348 511.327L210.881 532.037L199.362 529.55L211.864 471.601L223.382 474.089L217.714 500.363L223.177 501.543L228.845 475.268L240.363 477.756Z" fill="#3639FB"/>
<path d="M206.191 469.464L186.58 525.406L175.778 521.616L195.389 465.674L206.191 469.464Z" fill="#3639FB"/>
<path d="M177.471 457.214C181.315 459.112 183.824 461.84 184.997 465.399C186.151 468.948 185.665 472.877 183.54 477.187L171.444 501.715C168.902 506.871 165.939 510.316 162.556 512.051C159.152 513.777 155.145 513.502 150.536 511.227C148.02 509.985 146.014 508.419 144.518 506.529C143.003 504.629 142.138 502.474 141.924 500.065C141.701 497.676 142.279 495.082 143.66 492.283L148.188 483.1L158.755 488.316L154.882 496.17C154.098 497.761 153.773 498.927 153.907 499.67C154.032 500.432 154.517 501.022 155.362 501.439C156.349 501.926 157.192 501.892 157.891 501.336C158.581 500.8 159.219 499.938 159.805 498.749L172.928 472.137C173.653 470.667 173.953 469.525 173.828 468.712C173.683 467.89 173.208 467.28 172.403 466.882C171.497 466.435 170.679 466.495 169.95 467.061C169.2 467.617 168.532 468.49 167.946 469.678L163.224 479.254L152.536 473.978L157.496 463.919C159.8 459.247 162.651 456.435 166.049 455.483C169.436 454.551 173.244 455.128 177.471 457.214Z" fill="#3639FB"/>
<path d="M134.496 429C138.625 432.495 140.738 436.047 140.832 439.656C140.909 443.251 139.048 447.294 135.251 451.786L131.511 456.21L122.566 448.639L127.349 442.982C128.233 441.936 128.775 440.982 128.974 440.121C129.141 439.263 128.83 438.5 128.042 437.833C127.22 437.137 126.451 436.898 125.737 437.117C125.005 437.322 124.176 437.973 123.248 439.07C122.074 440.459 121.233 441.732 120.724 442.89C120.201 444.065 119.927 445.362 119.902 446.783C119.846 448.205 119.939 449.99 120.182 452.137L120.982 459.432C121.594 464.862 120.342 469.42 117.226 473.106C113.965 476.963 110.588 479.15 107.095 479.665C103.585 480.165 100.134 478.979 96.7407 476.108C92.5937 472.598 90.5897 469.005 90.7288 465.329C90.8507 461.638 92.8178 457.538 96.63 453.029L105.832 460.817L103.201 463.929C102.68 464.546 102.454 465.178 102.524 465.825C102.577 466.458 102.903 467.029 103.503 467.536C104.222 468.145 104.927 468.389 105.618 468.268C106.277 468.149 106.875 467.772 107.411 467.138C107.947 466.504 108.356 465.673 108.636 464.646C108.917 463.618 108.958 462.197 108.758 460.381L107.78 450.95C107.575 449.071 107.507 447.205 107.575 445.351C107.629 443.514 108.014 441.633 108.729 439.709C109.43 437.802 110.672 435.795 112.455 433.686C116.049 429.434 119.657 426.766 123.277 425.683C126.866 424.602 130.606 425.708 134.496 429Z" fill="#3639FB"/>
<path d="M110.902 405.418C113.968 409.029 115.229 412.716 114.684 416.479C114.108 420.24 111.758 423.872 107.636 427.376L86.1848 445.607C82.3189 448.893 78.586 450.445 74.9862 450.263C71.3718 450.065 68.017 448.143 64.9218 444.497C61.8267 440.852 60.4805 437.238 60.8835 433.654C61.2719 430.053 63.399 426.61 67.265 423.325L88.7157 405.093C92.8382 401.59 96.808 399.866 100.625 399.922C104.41 399.975 107.836 401.807 110.902 405.418ZM102.524 412.407C101.361 411.038 99.4541 411.48 96.8027 413.733L74.7618 432.466C72.538 434.356 71.9929 435.968 73.1263 437.303C74.4051 438.809 76.182 438.596 78.4571 436.662L100.472 417.951C101.875 416.759 102.739 415.73 103.064 414.864C103.372 414.013 103.192 413.194 102.524 412.407Z" fill="#3639FB"/>
<path d="M90.7423 377.344C93.2796 381.582 93.9637 385.412 92.7948 388.835C91.6066 392.269 88.7019 395.371 84.0807 398.14L46.851 420.451L40.9345 410.568L77.7599 388.5C78.6071 387.992 79.3966 387.454 80.1284 386.885C80.8409 386.327 81.3437 385.724 81.6367 385.078C81.9298 384.431 81.8456 383.722 81.3843 382.952C80.9115 382.162 80.3305 381.738 79.6416 381.679C78.9333 381.633 78.1614 381.807 77.3258 382.203C76.4787 382.58 75.6315 383.022 74.7843 383.53L37.959 405.598L32.0425 395.715L69.2722 373.405C73.8934 370.636 77.9976 369.537 81.5846 370.11C85.1525 370.694 88.205 373.106 90.7423 377.344Z" fill="#3639FB"/>
<path d="M79.9922 359.536L24.81 381.134L20.3699 369.778L44.8139 354.352L18.3829 364.696L14.2127 354.031L69.3949 332.433L73.6142 343.224L48.1818 359.544L75.7729 348.745L79.9922 359.536Z" fill="#3639FB"/>
<path d="M67.4062 325.829L9.34936 337.687L6.08992 321.714C5.2369 317.533 5.76042 314.149 7.66049 311.561C9.53857 308.977 12.7097 307.229 17.1739 306.317L44.3551 300.766C49.8529 299.643 54.2948 299.744 57.6806 301.069C61.0621 302.372 63.2444 305.433 64.2276 310.252L67.4062 325.829ZM54.7633 316.241L54.3525 314.228C53.917 312.094 52.6657 311.238 50.5985 311.66L20.6465 317.778C18.7112 318.173 17.5226 318.691 17.0806 319.331C16.6121 319.954 16.5394 321.058 16.8627 322.642L17.1253 323.929L54.7633 316.241Z" fill="#3639FB"/>
<path d="M58.9937 273.304L0 267.75L1.69081 249.775L38.1237 248.198L2.62138 239.882L4.32796 221.739L63.3217 227.294L62.3059 238.092L19.8036 234.09L61.6687 244.866L60.6719 255.463L17.4945 258.638L59.9968 262.64L58.9937 273.304Z" fill="#3639FB"/>
<path d="M70.3575 207.064C68.9396 211.585 66.4945 214.619 63.0222 216.164C59.5351 217.682 55.211 217.631 50.05 216.011L23.1951 207.58C18.3553 206.061 15.0521 203.729 13.2857 200.586C11.526 197.421 11.3618 193.557 12.7931 188.993C14.2244 184.429 16.5625 181.362 19.8072 179.792C23.0587 178.201 27.1044 178.164 31.9442 179.684L58.7991 188.114C63.9601 189.735 67.535 192.175 69.5235 195.435C71.4974 198.667 71.7754 202.544 70.3575 207.064ZM59.9799 203.701C60.5175 201.987 59.1266 200.609 55.8072 199.566L28.2136 190.904C25.4296 190.03 23.7755 190.429 23.2514 192.1C22.66 193.985 23.7885 195.375 26.6367 196.269L54.1982 204.922C55.9543 205.473 57.285 205.655 58.1903 205.469C59.0743 205.276 59.6708 204.686 59.9799 203.701Z" fill="#3639FB"/>
<path d="M79.0095 182.597L36.0162 161.526L32.9207 167.848L22.7015 162.84L34.106 139.548L44.3252 144.556L41.2297 150.878L84.223 171.95L79.0095 182.597Z" fill="#3639FB"/>
<path d="M89.5583 162.352L39.4625 130.69L45.576 121.008L95.6718 152.67L89.5583 162.352Z" fill="#3639FB"/>
<path d="M108.149 136.846C105.144 140.508 101.742 142.406 97.9439 142.54C94.1426 142.642 90.1517 140.976 85.9713 137.541L64.2193 119.671C60.2991 116.45 58.1076 113.052 57.6449 109.476C57.1965 105.882 58.4892 102.237 61.5232 98.5404C64.5571 94.8439 67.8722 92.8748 71.4685 92.6332C75.079 92.3741 78.8444 93.8549 82.7646 97.0756L104.517 114.946C108.697 118.38 111.1 121.981 111.725 125.749C112.347 129.485 111.155 133.184 108.149 136.846ZM99.7833 129.842C100.923 128.454 100.148 126.655 97.4596 124.446L75.1092 106.084C72.8542 104.232 71.1712 103.982 70.0602 105.336C68.8067 106.863 69.3335 108.575 71.6406 110.47L93.965 128.81C95.3874 129.979 96.5532 130.646 97.4626 130.812C98.3545 130.964 99.1281 130.641 99.7833 129.842Z" fill="#3639FB"/>
<path d="M121.501 120.535L82.7662 75.6725L91.9891 67.7016L114.67 85.6224L96.1164 64.1344L104.779 56.6479L143.514 101.51L134.75 109.085L110.898 90.529L130.266 112.96L121.501 120.535Z" fill="#3639FB"/>
</svg>
