<?xml version="1.0" encoding="UTF-8"?>
<svg id="Layer_1" data-name="Layer 1" xmlns="http://www.w3.org/2000/svg" viewBox="0 0 4497.5 2250">
  <rect y="2.5" width="4495.01" height="2247.5" style="fill: #E5E5DE;"/>
  <g>
    <g>
      <path d="M2250,2250H0V0h2250v2250ZM2.5,2247.5h2245.01V2.5H2.5v2245.01Z" style="fill: #b3b3b3;"/>
      <rect y="2107.66" width="2247.5" height="2.5" style="fill: #b3b3b3;"/>
      <rect y="1967.81" width="2247.5" height="2.5" style="fill: #b3b3b3;"/>
      <rect y="1827.97" width="2247.5" height="2.5" style="fill: #b3b3b3;"/>
      <rect y="1685.63" width="2247.5" height="2.5" style="fill: #b3b3b3;"/>
      <rect y="1545.78" width="2247.5" height="2.5" style="fill: #b3b3b3;"/>
      <rect y="1405.94" width="2247.5" height="2.5" style="fill: #b3b3b3;"/>
      <rect y="1266.09" width="2247.5" height="2.5" style="fill: #b3b3b3;"/>
      <rect y="1123.75" width="2247.5" height="2.5" style="fill: #b3b3b3;"/>
      <rect y="983.91" width="2247.5" height="2.5" style="fill: #b3b3b3;"/>
      <rect y="844.06" width="2247.5" height="2.5" style="fill: #b3b3b3;"/>
      <rect y="704.22" width="2247.5" height="2.5" style="fill: #b3b3b3;"/>
      <rect y="561.88" width="2247.5" height="2.5" style="fill: #b3b3b3;"/>
      <rect y="422.03" width="2247.5" height="2.5" style="fill: #b3b3b3;"/>
      <rect y="282.19" width="2247.5" height="2.5" style="fill: #b3b3b3;"/>
      <rect y="142.34" width="2247.5" height="2.5" style="fill: #b3b3b3;"/>
      <rect x="2105.16" y="2.5" width="2.5" height="2247.5" style="fill: #b3b3b3;"/>
      <rect x="1965.32" y="2.5" width="2.5" height="2247.5" style="fill: #b3b3b3;"/>
      <rect x="1825.47" y="2.5" width="2.5" height="2247.5" style="fill: #b3b3b3;"/>
      <rect x="1685.63" y="2.5" width="2.5" height="2247.5" style="fill: #b3b3b3;"/>
      <rect x="1543.29" y="2.5" width="2.5" height="2247.5" style="fill: #b3b3b3;"/>
      <rect x="1403.44" y="2.5" width="2.5" height="2247.5" style="fill: #b3b3b3;"/>
      <rect x="1263.6" y="2.5" width="2.5" height="2247.5" style="fill: #b3b3b3;"/>
      <rect x="1123.75" y="2.5" width="2.5" height="2247.5" style="fill: #b3b3b3;"/>
      <rect x="981.41" y="2.5" width="2.5" height="2247.5" style="fill: #b3b3b3;"/>
      <rect x="841.57" y="2.5" width="2.5" height="2247.5" style="fill: #b3b3b3;"/>
      <rect x="701.72" y="2.5" width="2.5" height="2247.5" style="fill: #b3b3b3;"/>
      <rect x="561.88" y="2.5" width="2.5" height="2247.5" style="fill: #b3b3b3;"/>
      <rect x="419.53" y="2.5" width="2.5" height="2247.5" style="fill: #b3b3b3;"/>
      <rect x="279.69" y="2.5" width="2.5" height="2247.5" style="fill: #b3b3b3;"/>
      <rect x="139.84" y="2.5" width="2.5" height="2247.5" style="fill: #b3b3b3;"/>
    </g>
    <g>
      <polygon points="4497.5 2250 2247.5 2250 2247.5 2247.5 4495.01 2247.5 4495.01 2.5 2247.5 2.5 2247.5 0 4497.5 0 4497.5 2250" style="fill: #b3b3b3;"/>
      <rect x="2247.5" y="2107.66" width="2247.5" height="2.5" style="fill: #b3b3b3;"/>
      <rect x="2247.5" y="1967.81" width="2247.5" height="2.5" style="fill: #b3b3b3;"/>
      <rect x="2247.5" y="1827.97" width="2247.5" height="2.5" style="fill: #b3b3b3;"/>
      <rect x="2247.5" y="1685.63" width="2247.5" height="2.5" style="fill: #b3b3b3;"/>
      <rect x="2247.5" y="1545.78" width="2247.5" height="2.5" style="fill: #b3b3b3;"/>
      <rect x="2247.5" y="1405.94" width="2247.5" height="2.5" style="fill: #b3b3b3;"/>
      <rect x="2247.5" y="1266.09" width="2247.5" height="2.5" style="fill: #b3b3b3;"/>
      <rect x="2247.5" y="1123.75" width="2247.5" height="2.5" style="fill: #b3b3b3;"/>
      <rect x="2247.5" y="983.91" width="2247.5" height="2.5" style="fill: #b3b3b3;"/>
      <rect x="2247.5" y="844.06" width="2247.5" height="2.5" style="fill: #b3b3b3;"/>
      <rect x="2247.5" y="704.22" width="2247.5" height="2.5" style="fill: #b3b3b3;"/>
      <rect x="2247.5" y="561.88" width="2247.5" height="2.5" style="fill: #b3b3b3;"/>
      <rect x="2247.5" y="422.03" width="2247.5" height="2.5" style="fill: #b3b3b3;"/>
      <rect x="2247.5" y="282.19" width="2247.5" height="2.5" style="fill: #b3b3b3;"/>
      <rect x="2247.5" y="142.34" width="2247.5" height="2.5" style="fill: #b3b3b3;"/>
      <rect x="4352.66" y="2.5" width="2.5" height="2247.5" style="fill: #b3b3b3;"/>
      <rect x="4212.82" y="2.5" width="2.5" height="2247.5" style="fill: #b3b3b3;"/>
      <rect x="4072.97" y="2.5" width="2.5" height="2247.5" style="fill: #b3b3b3;"/>
      <rect x="3933.13" y="2.5" width="2.5" height="2247.5" style="fill: #b3b3b3;"/>
      <rect x="3790.79" y="2.5" width="2.5" height="2247.5" style="fill: #b3b3b3;"/>
      <rect x="3650.94" y="2.5" width="2.5" height="2247.5" style="fill: #b3b3b3;"/>
      <rect x="3511.1" y="2.5" width="2.5" height="2247.5" style="fill: #b3b3b3;"/>
      <rect x="3371.25" y="2.5" width="2.5" height="2247.5" style="fill: #b3b3b3;"/>
      <rect x="3228.91" y="2.5" width="2.5" height="2247.5" style="fill: #b3b3b3;"/>
      <rect x="3089.07" y="2.5" width="2.5" height="2247.5" style="fill: #b3b3b3;"/>
      <rect x="2949.22" y="2.5" width="2.5" height="2247.5" style="fill: #b3b3b3;"/>
      <rect x="2809.38" y="2.5" width="2.5" height="2247.5" style="fill: #b3b3b3;"/>
      <rect x="2667.04" y="2.5" width="2.5" height="2247.5" style="fill: #b3b3b3;"/>
      <rect x="2527.19" y="2.5" width="2.5" height="2247.5" style="fill: #b3b3b3;"/>
      <rect x="2387.35" y="2.5" width="2.5" height="2247.5" style="fill: #b3b3b3;"/>
    </g>
  </g>
</svg>