<?xml version="1.0" encoding="UTF-8"?>
<svg id="Layer_2" data-name="Layer 2" xmlns="http://www.w3.org/2000/svg" viewBox="0 0 58.13 72.61">
  <g id="Layer_1-2" data-name="Layer 1">
    <g>
      <path d="M57.73,71.69l-1.13-2.59-.02-.03-16.04-36.74-.05-.11L53.4,0h-13.81s-19.89,0-19.89,0h0s-13.63,0-13.63,0l17.31,41.35-12.52,31.24h1.91v.02s45.36,0,45.36,0l-.04-.09M52.9,63.16l-17.41-.16-7.32-.07,4.68-11.67,3.93-9.7,3.35-7.65,12.78,29.25ZM29.72,26.37L20.23,1.4l-.19-.49h19.11l-9.43,25.46Z" style="fill: #e91a14;"/>
      <path d="M51.66,71.69l-1.13-2.59-.02-.03-16.04-36.74-.05-.11L47.33,0h-13.81S13.63,0,13.63,0h0s-13.63,0-13.63,0l17.31,41.35-12.52,31.24h1.91v.02s45.36,0,45.36,0l-.04-.09M46.83,63.16l-17.41-.16-7.32-.07,4.68-11.67,3.93-9.7,3.35-7.65,12.78,29.25ZM23.65,26.37L14.16,1.4l-.19-.49h19.11l-9.43,25.46Z" style="fill: #3639fb;"/>
    </g>
  </g>
</svg>