<?xml version="1.0" encoding="UTF-8"?>
<svg id="Layer_2" data-name="Layer 2" xmlns="http://www.w3.org/2000/svg" viewBox="0 0 58.14 72.6">
  <g id="Layer_1-2" data-name="Layer 1">
    <g>
      <path d="M58.1,72.51l-.36-.83-1.13-2.58-.02-.03-16.05-36.75-.04-.1L53.41,0h-6.08l-12.91,32.22.05.1,3.18,7.28,2.48-5.69,12.78,29.25-5-.05,2.6,5.96.02.03,1.13,2.58.36.83.04.09h6.08l-.04-.09ZM35.5,63l-7.32-.07,4.67-11.68,3.94-9.69.3-.7-3.03-6.95-3.35,7.65-3.93,9.69-4.68,11.68,7.32.07,17.41.16-.02-.06-11.31-.1ZM26.65,18.27L20.24,1.4l-.19-.49h-6.07l.18.49,9.49,24.97,3-8.1Z" style="fill: #e5e5de;"/>
      <path d="M37.65,39.6l-.56,1.26,9.72,22.24h1.1s-10.26-23.5-10.26-23.5ZM33.08.91l-6.43,17.36,3.08,8.1L39.16.91h-6.08ZM6.08,0H0l17.31,41.34-12.52,31.24h1.91v.02s6.07,0,6.07,0v-.02s-1.9,0-1.9,0l12.52-31.24L6.08,0Z" style="fill: #fff;"/>
      <path d="M52.06,72.6l-.04-.09-.36-.83-1.13-2.58-.02-.03-2.6-5.96h-1.1s.02.05.02.05l-17.41-.16-7.32-.07,4.68-11.68,3.93-9.69,3.35-7.65,3.03,6.95.56-1.26-3.18-7.28-.05-.1L47.33,0H6.08l17.31,41.34-12.52,31.24h1.91v.02s39.28,0,39.28,0ZM14.16,1.4l-.18-.49h25.18l-9.43,25.46-3.08-8.1-3,8.1L14.16,1.4Z" style="fill: #fff;"/>
    </g>
  </g>
</svg>